<svg width="324" height="313" viewBox="0 0 324 313" fill="none" xmlns="http://www.w3.org/2000/svg">
<path d="M12 49.8757V217.55C12 223.177 15.1492 228.331 20.1563 230.898L151.272 298.123C158.464 301.811 166.995 301.794 174.173 298.078L303.897 230.911C308.875 228.334 312 223.196 312 217.591V49.8757M12 49.8757L86.8763 14.3311C92.6137 11.6075 99.3038 11.7708 104.901 14.7712L241.731 88.1119V185.512C241.731 190.075 239.244 194.276 235.244 196.471L177.095 228.375C168.145 233.286 157.311 233.308 148.341 228.434L89.4974 196.461C85.4717 194.273 82.9653 190.059 82.9653 185.477V87.8307L222.954 14.7243C228.636 11.7568 235.397 11.693 241.134 14.5527L312 49.8757M12 49.8757L148.516 122.89C157.394 127.638 168.062 127.616 176.921 122.832L312 49.8757" stroke="white" stroke-width="24"/>
</svg>
